<?xml version="1.0" standalone="no"?><!DOCTYPE svg PUBLIC "-//W3C//DTD SVG 1.1//EN" "http://www.w3.org/Graphics/SVG/1.1/DTD/svg11.dtd"><svg t="1762581886739" class="icon" viewBox="0 0 1024 1024" version="1.1" xmlns="http://www.w3.org/2000/svg" p-id="4893" width="200" height="200" xmlns:xlink="http://www.w3.org/1999/xlink"><path d="M802.858667 745.472c-42.666667 98.645333-96.341333 140.757333-179.498667 140.757333h-129.706667c-20.821333 0-41.173333-3.626667-60.501333-10.752-18.048-6.656-31.573333-14.805333-48.256-29.013333-5.12-4.48-39.68-40.874667-69.589333-94.378667-0.170667-0.341333-0.426667-0.597333-0.64-0.896-0.213333-0.512-0.341333-1.066667-0.597334-1.578666l-126.549333-250.581334a47.146667 47.146667 0 0 1-5.034667-32.853333c1.194667-5.248 4.693333-14.805333 14.421334-19.84 9.685333-5.034667 19.712-2.432 24.832-0.469333 10.24 3.925333 19.029333 11.989333 24.746666 22.613333a19.370667 19.370667 0 0 0 0.938667 1.621333l86.357333 136.277334c2.133333 3.328 4.906667 5.973333 8.064 8.021333a26.837333 26.837333 0 0 0 15.786667 5.162667 26.453333 26.453333 0 0 0 26.666667-26.197334V214.357333a35.84 35.84 0 0 1 36.096-35.456c20.352 0 37.546667 16.213333 37.546666 35.413334 0 1.024 0.213333 1.962667 0.298667 2.986666v273.28c0 14.464 11.946667 26.197333 26.709333 26.197334a26.453333 26.453333 0 0 0 26.709334-26.197334V173.226667a35.84 35.84 0 0 1 36.096-35.456 35.84 35.84 0 0 1 36.096 35.456v317.354666c0 14.464 11.946667 26.197333 26.709333 26.197334a26.453333 26.453333 0 0 0 26.709333-26.197334V224.597333a35.84 35.84 0 0 1 36.096-35.413333 35.84 35.84 0 0 1 36.096 35.413333v307.072c0 14.506667 11.946667 26.24 26.709334 26.24a26.453333 26.453333 0 0 0 26.709333-26.24V344.874667v-0.256c0-18.901333 18.304-35.413333 39.125333-35.413334a35.84 35.84 0 0 1 36.096 35.413334v225.578666c0 0.725333 0.170667 1.408 0.213334 2.133334-0.085333 0.64-0.256 1.28-0.298667 1.962666-1.28 36.48-7.509333 107.178667-35.157333 171.178667z m88.661333-400.853333c0-48.469333-40.149333-87.893333-89.514667-87.893334-13.909333 0-27.178667 3.2-39.125333 8.704v-40.832c0-48.469333-40.149333-87.893333-89.514667-87.893333-14.592 0-28.288 3.541333-40.448 9.6A89.514667 89.514667 0 0 0 547.754667 85.333333c-36.693333 0-68.266667 21.76-82.048 52.906667a92.714667 92.714667 0 0 0-45.312-11.776c-49.322667 0-89.472 39.424-89.472 87.893333v288.256l-37.717334-59.477333a101.376 101.376 0 0 0-51.882666-46.08c-23.552-9.088-48.170667-8.064-69.333334 2.901333s-35.925333 30.336-41.557333 54.570667a98.176 98.176 0 0 0 9.557333 68.394667l126.250667 250.026666c0.213333 0.426667 0.64 0.853333 0.896 1.28 0.426667 1.024 0.810667 2.133333 1.365333 3.072 34.432 61.653333 73.514667 101.973333 81.28 108.672 21.333333 18.218667 40.661333 29.781333 64.597334 38.613334 25.344 9.344 52.053333 14.08 79.317333 14.08h129.664c137.984 0 196.608-98.56 228.693333-172.714667 29.44-68.181333 37.674667-140.885333 39.338667-189.866667 0.042667-1.024-0.085333-1.962667-0.170667-2.944 0.085333-0.981333 0.298667-1.92 0.298667-2.944V344.618667z" fill="#000000" p-id="4894"></path></svg>